<svg id="fi-rr-apps" xmlns="http://www.w3.org/2000/svg" width="24" height="24" viewBox="0 0 24 24">
  <path id="Tracé_991" data-name="Tracé 991" d="M7,0H4A4,4,0,0,0,0,4V7a4,4,0,0,0,4,4H7a4,4,0,0,0,4-4V4A4,4,0,0,0,7,0ZM9,7A2,2,0,0,1,7,9H4A2,2,0,0,1,2,7V4A2,2,0,0,1,4,2H7A2,2,0,0,1,9,4Z" fill="#fff"/>
  <path id="Tracé_992" data-name="Tracé 992" d="M20,0H17a4,4,0,0,0-4,4V7a4,4,0,0,0,4,4h3a4,4,0,0,0,4-4V4A4,4,0,0,0,20,0Zm2,7a2,2,0,0,1-2,2H17a2,2,0,0,1-2-2V4a2,2,0,0,1,2-2h3a2,2,0,0,1,2,2Z" fill="#fff"/>
  <path id="Tracé_993" data-name="Tracé 993" d="M7,13H4a4,4,0,0,0-4,4v3a4,4,0,0,0,4,4H7a4,4,0,0,0,4-4V17A4,4,0,0,0,7,13Zm2,7a2,2,0,0,1-2,2H4a2,2,0,0,1-2-2V17a2,2,0,0,1,2-2H7a2,2,0,0,1,2,2Z" fill="#fff"/>
  <path id="Tracé_994" data-name="Tracé 994" d="M20,13H17a4,4,0,0,0-4,4v3a4,4,0,0,0,4,4h3a4,4,0,0,0,4-4V17A4,4,0,0,0,20,13Zm2,7a2,2,0,0,1-2,2H17a2,2,0,0,1-2-2V17a2,2,0,0,1,2-2h3a2,2,0,0,1,2,2Z" fill="#fff"/>
</svg>
